HIERARCHY
ROOT Hips
{
	OFFSET 0.00000 0.00000 0.00000
	CHANNELS 6 Xposition Yposition Zposition Zrotation Yrotation Xrotation 
	JOINT LHipJoint
	{
		OFFSET 0 0 0
		CHANNELS 3 Zrotation Yrotation Xrotation
		JOINT LeftHip
		{
			OFFSET 1.39187 -1.60231 0.69152
			CHANNELS 3 Zrotation Yrotation Xrotation
			JOINT LeftKnee
			{
				OFFSET 2.43314 -6.68499 0.00000
				CHANNELS 3 Zrotation Yrotation Xrotation
				JOINT LeftAnkle
				{
					OFFSET 2.32059 -6.37578 0.00000
					CHANNELS 3 Zrotation Yrotation Xrotation
					JOINT LeftToe
					{
						OFFSET 0.23021 -0.63250 1.71305
						CHANNELS 3 Zrotation Yrotation Xrotation
						End Site
						{
							OFFSET 0.00000 -0.00000 0.91647
						}
					}
				}
			}
		}
	}
	JOINT RHipJoint
	{
		OFFSET 0 0 0
		CHANNELS 3 Zrotation Yrotation Xrotation
		JOINT RightHip
		{
			OFFSET -1.19407 -1.60231 0.69152
			CHANNELS 3 Zrotation Yrotation Xrotation
			JOINT RightKnee
			{
				OFFSET -2.44411 -6.71513 0.00000
				CHANNELS 3 Zrotation Yrotation Xrotation
				JOINT RightAnkle
				{
					OFFSET -2.31924 -6.37207 0.00000
					CHANNELS 3 Zrotation Yrotation Xrotation
					JOINT RightToe
					{
						OFFSET -0.19473 -0.53502 1.87724
						CHANNELS 3 Zrotation Yrotation Xrotation
						End Site
						{
							OFFSET -0.00000 -0.00000 0.98293
						}
					}
				}
			}
		}
	}
	JOINT lowerback
	{
		OFFSET 0 0 0
		CHANNELS 3 Zrotation Yrotation Xrotation
		JOINT Chest
		{
			OFFSET -0.01120 1.87307 0.09613
			CHANNELS 3 Zrotation Yrotation Xrotation
			JOINT Chest2
			{
				OFFSET 0.01099 1.87818 0.04834
				CHANNELS 3 Zrotation Yrotation Xrotation
				JOINT lowerneck
				{
					OFFSET 0 0 0
					CHANNELS 3 Zrotation Yrotation Xrotation
					JOINT Neck
					{
						OFFSET 0.01702 1.40324 -0.12579
						CHANNELS 3 Zrotation Yrotation Xrotation
						JOINT Head
						{
							OFFSET -0.04239 1.38587 -0.01614
							CHANNELS 3 Zrotation Yrotation Xrotation
							End Site
							{
								OFFSET -0.02510 1.47031 -0.00154
							}
						}
					}
				}
				JOINT LeftCollar
				{
					OFFSET 0 0 0
					CHANNELS 3 Zrotation Yrotation Xrotation
					JOINT LeftShoulder
					{
						OFFSET 2.95699 0.62343 0.11653
CHANNELS 3 Zrotation Xrotation Yrotation
						JOINT LeftElbow
						{
OFFSET 0 -4.683820 -0.000000
CHANNELS 3 Zrotation Xrotation Yrotation
							JOINT LeftWrist
							{
OFFSET 0 -2.981240 -0.000000
CHANNELS 3 Zrotation Xrotation Yrotation
								JOINT lhand
								{
									OFFSET 0 0 0
CHANNELS 3 Zrotation Xrotation Yrotation
									JOINT LFingers
									{
OFFSET 0 -0.707590 0.000000
CHANNELS 3 Zrotation Xrotation Yrotation
										End Site
										{
OFFSET 0 -0.570480 0.000000
										}
									}
								}
								JOINT LThumb
								{
OFFSET 0 0.000000 0.000000
CHANNELS 3 Zrotation Xrotation Yrotation
									End Site
									{
OFFSET 0 -0.579190 0.579190
									}
								}
							}
						}
					}
				}
				JOINT RightCollar
				{
					OFFSET 0 0 0
					CHANNELS 3 Zrotation Yrotation Xrotation
					JOINT RightShoulder
					{
						OFFSET -2.99027 0.88714 -0.02793
CHANNELS 3 Zrotation Xrotation Yrotation
						JOINT RightElbow
						{
OFFSET 0 -4.758760 -0.000000
CHANNELS 3 Zrotation Xrotation Yrotation
							JOINT RightWrist
							{
OFFSET 0 -2.932930 -0.000000
CHANNELS 3 Zrotation Xrotation Yrotation
								JOINT rhand
								{
									OFFSET 0 0 0
CHANNELS 3 Zrotation Xrotation Yrotation
									JOINT RFingers
									{
OFFSET 0 -0.831750 0.000000
CHANNELS 3 Zrotation Xrotation Yrotation
										End Site
										{
OFFSET 0 -0.670580 0.000000
										}
									}
								}
								JOINT RThumb
								{
OFFSET 0 0.000000 0.000000
CHANNELS 3 Zrotation Xrotation Yrotation
									End Site
									{
OFFSET 0 -0.680820 0.680820
									}
								}
							}
						}
					}
				}
			}
		}
	}
}
MOTION
Frames: 12
Frame Time: 0.008333333333333333
-16.686600 16.500600 -3.779900 172.048000 -74.924200 -157.920000 0.000000 0.000000 0.000000 -12.577400 -20.892000 -17.951400 1.563800 7.891400 22.384800 -0.186200 13.664600 -17.044800 0.019300 -0.897000 -2.465500 0.000000 0.000000 0.000000 18.108700 18.796900 -8.755000 -1.165700 -6.853700 19.282700 4.154200 -33.471900 -17.760600 -0.000200 -0.089100 0.244900 -6.547400 0.375500 -10.837700 -0.468100 0.938600 -4.630000 3.302400 0.447700 1.119000 -3.745100 0.879000 0.642400 7.657000 -0.003000 14.033000 2.961200 0.008500 4.052000 0.000000 0.000000 0.000000 -3.401900 -4.136700 21.023200 5.650500 -9.678000 0.478700 -0.744300 74.394100 -24.476100 0.000000 0.000000 0.000000 -7.125000 0.000000 0.000000 -30.346200 51.772500 5.481900 0.000000 0.000000 0.000000 5.834900 0.215100 14.985300 -8.144600 -13.787000 -0.986300 -16.612200 26.636700 -11.252900 0.000000 0.000000 0.000000 7.125000 0.000000 -0.000000 7.376500 18.305900 4.725700
-16.664933 16.495665 -3.782228 172.111750 -75.158412 -157.873997 0.000000 0.000000 0.000000 -12.450041 -20.491667 -18.277999 1.538065 7.829017 22.196048 -0.173649 13.197415 -16.461018 0.100080 -2.038431 -5.611980 0.000000 0.000000 0.000000 18.161895 18.782173 -9.267017 -1.224864 -7.019399 19.772960 4.258474 -33.763462 -17.228643 -0.007632 0.564817 -1.551980 -6.180652 0.585226 -12.780154 -0.713061 1.476732 -2.850008 2.968226 0.611890 4.015835 -3.758410 0.597930 -0.644529 7.765539 -0.226935 12.998449 2.984684 -0.049334 3.969072 0.000000 0.000000 0.000000 -3.276245 -7.325606 21.854592 5.423182 -9.296777 0.441294 -0.126370 76.220594 -24.543114 0.000000 0.000000 0.000000 -7.125000 0.000000 0.000000 -29.824452 51.933812 5.497202 0.000000 0.000000 0.000000 6.040579 -2.686136 14.777519 -7.996497 -13.547249 -0.951300 -16.710207 26.086798 -11.296917 0.000000 0.000000 0.000000 7.125000 0.000000 0.000000 7.307715 18.253631 4.689355
-16.647832 16.490859 -3.783596 171.854796 -75.319288 -157.388643 0.000000 0.000000 0.000000 -12.446246 -19.871975 -18.911721 1.544485 7.844668 22.243337 -0.113784 12.543897 -16.289423 0.181745 -2.743514 -7.565524 0.000000 0.000000 0.000000 18.046603 18.463728 -9.860127 -1.256927 -7.107192 20.033448 4.102429 -33.300346 -17.710984 -0.001655 0.259024 -0.711636 -6.115021 0.669165 -12.628586 -0.800873 1.586065 -2.707930 2.854466 0.665280 4.077094 -4.048670 0.493748 -0.538695 7.936091 -0.341691 12.628433 3.078225 -0.112529 3.845800 0.000000 0.000000 0.000000 -3.236899 -7.500049 19.713511 5.424395 -9.298795 0.441496 1.071908 74.426930 -24.766359 0.000000 0.000000 0.000000 -7.125000 0.000000 0.000000 -28.864356 52.330582 5.588870 0.000000 0.000000 0.000000 6.117711 -2.881372 15.191864 -8.058862 -13.648267 -0.965983 -16.516672 25.765995 -11.239720 0.000000 0.000000 0.000000 7.125000 0.000000 0.000000 7.443606 18.325981 4.766031
-16.629482 16.493112 -3.784610 171.700788 -75.431807 -156.950725 0.000000 0.000000 0.000000 -12.294033 -19.694755 -19.641072 1.583302 7.937949 22.525880 -0.053233 11.996555 -16.331346 0.083226 -1.860885 -5.121264 0.000000 0.000000 0.000000 17.938332 18.296971 -10.389984 -1.261277 -7.119179 20.068980 4.117543 -33.302810 -17.144614 -0.006584 0.523854 -1.439344 -6.149705 0.700103 -12.390083 -0.843435 1.622922 -2.649493 2.830176 0.686461 4.004656 -4.106676 0.541324 -0.559256 8.072330 -0.273845 12.469237 3.130858 -0.074579 3.796343 0.000000 0.000000 0.000000 -3.345206 -7.902686 21.267487 5.333424 -9.145911 0.426866 2.292979 76.451270 -24.584879 0.000000 0.000000 0.000000 -7.125000 0.000000 0.000000 -27.619624 52.379075 5.349367 0.000000 0.000000 0.000000 6.021939 -3.088456 16.348695 -7.985110 -13.528615 -0.948655 -16.463548 24.594004 -11.523237 0.000000 0.000000 0.000000 7.125000 0.000000 0.000000 7.480105 18.037834 4.837758
-16.609957 16.490187 -3.788903 171.787726 -75.764784 -157.060975 0.000000 0.000000 0.000000 -12.107432 -19.427116 -20.210390 1.649748 8.094766 23.002352 0.015389 11.175837 -16.130910 0.066491 -1.662271 -4.573103 0.000000 0.000000 0.000000 18.083035 17.948806 -10.399455 -1.243998 -7.071962 19.928830 4.077795 -33.180384 -17.242267 -0.006459 0.511366 -1.405101 -6.023857 0.773902 -11.702296 -0.869314 1.673571 -2.520655 2.725230 0.723412 3.762363 -3.726950 0.520352 -0.766168 7.596802 -0.256272 12.517294 2.922330 -0.061841 3.847369 0.000000 0.000000 0.000000 -3.478176 -8.230946 21.692961 5.309085 -9.104926 0.422990 3.269455 77.471525 -24.659674 0.000000 0.000000 0.000000 -7.125000 0.000000 0.000000 -26.755430 52.612674 5.320277 0.000000 0.000000 0.000000 6.169668 -3.085935 16.076954 -8.155073 -13.803917 -0.988815 -16.076661 25.062808 -11.393912 0.000000 0.000000 0.000000 7.125000 0.000000 0.000000 7.751481 18.197533 4.988951
-16.580238 16.483088 -3.793476 172.694715 -76.202626 -157.890209 0.000000 0.000000 0.000000 -11.726280 -18.620259 -21.125390 1.730120 8.279702 23.567010 0.135423 9.852037 -16.078491 0.147318 -2.472692 -6.813834 0.000000 0.000000 0.000000 18.403447 18.258658 -10.327616 -1.240224 -7.061587 19.897923 4.052909 -33.203083 -18.359442 -0.005958 -0.488647 1.342744 -5.698948 0.843407 -10.887593 -0.786446 1.679748 -2.481229 2.611327 0.745720 3.362171 -3.723307 0.549916 -0.693623 7.304840 -0.168293 12.382448 2.833389 -0.030458 3.790866 0.000000 0.000000 0.000000 -3.772019 -8.493669 22.756112 5.277405 -9.051769 0.418020 4.707407 79.130557 -24.849768 0.000000 0.000000 0.000000 -7.125000 0.000000 0.000000 -25.520093 53.032269 5.318573 0.000000 0.000000 0.000000 6.085331 -3.038197 16.800830 -8.247800 -13.953647 -1.011031 -16.169909 24.299119 -11.393694 0.000000 0.000000 0.000000 7.125000 0.000000 0.000000 7.686157 18.191405 4.947198
-16.539741 16.474035 -3.795749 173.686816 -76.692958 -158.368092 0.000000 0.000000 0.000000 -11.176067 -18.030601 -22.461450 1.797819 8.431631 24.032953 0.212236 8.759631 -15.845466 0.198873 -2.868564 -7.913129 0.000000 0.000000 0.000000 18.659611 18.218654 -11.264293 -1.277049 -7.161863 20.195734 4.164675 -33.503447 -17.739778 -0.000511 0.109991 -0.302292 -5.436631 0.781492 -10.491694 -0.637686 1.545729 -2.446287 2.593407 0.688611 3.195369 -3.683946 0.654409 -0.842891 6.965630 0.031356 12.258308 2.759889 0.058815 3.815318 0.000000 0.000000 0.000000 -3.991609 -8.801329 21.535972 5.272543 -9.043511 0.417242 6.002606 78.071756 -25.180913 0.000000 0.000000 0.000000 -7.125000 0.000000 0.000000 -24.492487 53.560808 5.409394 0.000000 0.000000 0.000000 6.002801 -3.253830 17.199512 -8.303551 -14.043736 -1.024563 -16.452705 24.209672 -11.597408 0.000000 0.000000 0.000000 7.125000 0.000000 0.000000 7.487554 17.962129 4.855257
-16.498832 16.472999 -3.788097 174.164643 -76.670675 -158.070666 0.000000 0.000000 0.000000 -10.789540 -17.660634 -24.085039 1.880622 8.612710 24.591170 0.248119 8.145950 -15.667168 0.086198 -1.882020 -5.180119 0.000000 0.000000 0.000000 18.402377 18.265494 -12.581509 -1.318324 -7.272196 20.524312 3.942594 -32.825708 -18.192460 -0.004513 -0.421582 1.158467 -5.194875 0.988715 -10.330330 -0.732701 1.787025 -2.486846 2.384078 0.814738 3.055032 -3.648225 0.606050 -0.921907 6.646269 0.040968 11.757918 2.901453 0.034833 4.045035 0.000000 0.000000 0.000000 -4.086697 -9.136246 20.794443 5.259773 -9.022051 0.415273 6.672670 77.821050 -25.344378 0.000000 0.000000 0.000000 -7.125000 0.000000 0.000000 -23.950902 53.830147 5.440715 0.000000 0.000000 0.000000 6.057282 -3.423089 17.675873 -8.345454 -14.111349 -1.034728 -16.504048 23.785229 -11.471917 0.000000 0.000000 0.000000 7.125000 0.000000 0.000000 7.451886 18.087718 4.810914
-16.464402 16.463642 -3.786397 175.455077 -77.077392 -158.824983 0.000000 0.000000 0.000000 -10.318865 -16.753733 -25.772753 2.008852 8.884320 25.434146 0.332672 6.819439 -15.488976 0.248813 -3.207883 -8.858258 0.000000 0.000000 0.000000 18.631178 18.291835 -13.329264 -1.325150 -7.290168 20.577820 3.907319 -32.730940 -18.381569 -0.011722 -0.675186 1.855591 -4.744826 1.055582 -9.879804 -0.700275 1.807886 -2.479764 2.156470 0.836166 2.826400 -3.400860 0.578433 -1.133387 6.290133 0.043666 11.746073 2.733010 0.039614 4.076518 0.000000 0.000000 0.000000 -4.212504 -9.489574 21.017667 5.202361 -8.925455 0.406354 7.717069 78.638487 -25.268826 0.000000 0.000000 0.000000 -7.125000 0.000000 0.000000 -22.899630 53.951226 5.250657 0.000000 0.000000 0.000000 5.949223 -3.561205 19.200626 -8.385130 -14.175205 -1.044425 -16.446784 22.377863 -11.396756 0.000000 0.000000 0.000000 7.125000 0.000000 0.000000 7.492120 18.169136 4.823783
-16.437685 16.459440 -3.785734 176.443090 -77.431505 -159.414416 0.000000 0.000000 0.000000 -9.943022 -16.078986 -27.224547 2.146213 9.164061 26.310024 0.427500 5.527108 -15.618698 0.150287 -2.496515 -6.880077 0.000000 0.000000 0.000000 18.869978 17.882628 -14.010635 -1.323938 -7.287068 20.568588 3.950621 -32.769008 -17.337461 -0.001078 0.055942 -0.153662 -4.520601 1.042216 -9.488731 -0.538742 1.757342 -2.320963 2.185026 0.815893 2.781551 -3.444922 0.707847 -1.352678 6.073367 0.276303 11.512533 2.671956 0.152927 4.020584 0.000000 0.000000 0.000000 -5.089011 -9.570222 22.445309 5.371940 -9.210657 0.433070 9.219555 80.489521 -25.186622 0.000000 0.000000 0.000000 -7.125000 0.000000 0.000000 -21.393553 54.151262 4.985568 0.000000 0.000000 0.000000 5.781667 -3.763476 19.741632 -8.571684 -14.475208 -1.090558 -16.273238 22.262014 -11.402321 0.000000 0.000000 0.000000 7.125000 0.000000 0.000000 7.613642 18.175383 4.902436
-16.405117 16.470805 -3.780337 177.262491 -77.680994 -159.724192 0.000000 0.000000 0.000000 -9.583072 -15.597865 -28.597021 2.260784 9.389333 27.020940 0.482301 4.433379 -15.494283 0.041107 -1.282381 -3.526463 0.000000 0.000000 0.000000 18.892858 17.895245 -14.913425 -1.364399 -7.392839 20.884690 3.711739 -32.106980 -18.634154 -0.021063 -0.936672 2.574499 -4.289351 1.145711 -9.183959 -0.427430 1.871284 -2.107980 2.178843 0.874552 2.830831 -3.289368 0.753094 -1.549030 5.578088 0.421327 11.165028 2.471734 0.221467 3.922348 0.000000 0.000000 0.000000 -5.526778 -10.214023 22.469479 5.286002 -9.066261 0.419412 11.070658 81.654533 -25.418546 0.000000 0.000000 0.000000 -7.125000 0.000000 0.000000 -19.713514 54.714398 4.844495 0.000000 0.000000 0.000000 5.631088 -4.233006 19.856802 -8.591457 -14.506958 -1.095560 -16.307889 22.280387 -11.480065 0.000000 0.000000 0.000000 7.125000 0.000000 0.000000 7.589121 18.093043 4.900225
-16.367650 16.445407 -3.770989 178.880599 -77.966552 -160.944907 0.000000 0.000000 0.000000 -9.284120 -14.745555 -29.757601 2.361126 9.580801 27.629693 0.495317 3.662684 -15.145575 0.186263 -2.778367 -7.662418 0.000000 0.000000 0.000000 19.160207 17.765475 -15.915432 -1.446736 -7.603410 21.515870 3.594556 -31.755780 -18.986052 -0.032379 -1.161619 3.193723 -3.827461 1.289506 -8.777503 -0.362630 2.020160 -1.810388 1.996633 0.951813 2.919033 -3.095029 0.752831 -1.398708 5.303037 0.480959 10.509623 2.327952 0.252303 3.655552 0.000000 0.000000 0.000000 -5.808668 -10.973063 22.386363 5.255700 -9.015282 0.414640 12.234981 82.389317 -25.730038 0.000000 0.000000 0.000000 -7.125000 0.000000 0.000000 -18.737293 55.232116 4.830695 0.000000 0.000000 0.000000 5.604157 -4.872717 20.189128 -8.575059 -14.480646 -1.091375 -16.359796 22.094453 -11.320374 0.000000 0.000000 0.000000 7.125000 0.000000 0.000000 7.553357 18.253835 4.849673
